<svg xmlns="http://www.w3.org/2000/svg" width="860" height="410"><style>text{font-family:Arial;font-size:13px;fill:#172033}</style><text x="430" y="28" text-anchor="middle" font-size="20">Top regular-season scorer effect by draft slot</text><line x1="440.6" y1="48" x2="440.6" y2="385" stroke="#d93025" stroke-width="2"/><text x="55" y="75" text-anchor="end">1</text><line x1="85.0" y1="70" x2="367.8" y2="70" stroke="#3367d6" stroke-width="4"/><circle cx="227.3" cy="70" r="5" fill="#172033"/><text x="55" y="101" text-anchor="end">2</text><line x1="223.2" y1="96" x2="517.7" y2="96" stroke="#3367d6" stroke-width="4"/><circle cx="368.5" cy="96" r="5" fill="#172033"/><text x="55" y="127" text-anchor="end">3</text><line x1="367.0" y1="122" x2="664.9" y2="122" stroke="#3367d6" stroke-width="4"/><circle cx="522.6" cy="122" r="5" fill="#172033"/><text x="55" y="153" text-anchor="end">4</text><line x1="458.1" y1="148" x2="775.0" y2="148" stroke="#3367d6" stroke-width="4"/><circle cx="614.5" cy="148" r="5" fill="#172033"/><text x="55" y="179" text-anchor="end">5</text><line x1="313.5" y1="174" x2="601.2" y2="174" stroke="#3367d6" stroke-width="4"/><circle cx="455.0" cy="174" r="5" fill="#172033"/><text x="55" y="205" text-anchor="end">6</text><line x1="409.9" y1="200" x2="726.4" y2="200" stroke="#3367d6" stroke-width="4"/><circle cx="568.9" cy="200" r="5" fill="#172033"/><text x="55" y="231" text-anchor="end">7</text><line x1="404.2" y1="226" x2="705.5" y2="226" stroke="#3367d6" stroke-width="4"/><circle cx="554.5" cy="226" r="5" fill="#172033"/><text x="55" y="257" text-anchor="end">8</text><line x1="295.3" y1="252" x2="591.7" y2="252" stroke="#3367d6" stroke-width="4"/><circle cx="440.6" cy="252" r="5" fill="#172033"/><text x="55" y="283" text-anchor="end">9</text><line x1="116.5" y1="278" x2="392.4" y2="278" stroke="#3367d6" stroke-width="4"/><circle cx="249.3" cy="278" r="5" fill="#172033"/><text x="55" y="309" text-anchor="end">10</text><line x1="381.8" y1="304" x2="698.3" y2="304" stroke="#3367d6" stroke-width="4"/><circle cx="537.0" cy="304" r="5" fill="#172033"/><text x="55" y="335" text-anchor="end">11</text><line x1="258.4" y1="330" x2="556.4" y2="330" stroke="#3367d6" stroke-width="4"/><circle cx="404.2" cy="330" r="5" fill="#172033"/><text x="55" y="361" text-anchor="end">12</text><line x1="192.4" y1="356" x2="490.7" y2="356" stroke="#3367d6" stroke-width="4"/><circle cx="345.0" cy="356" r="5" fill="#172033"/></svg>